:FULLY-SPECIFIED
:FORCE-ALL-JOINTS-BE-3DOF
:DEGREES
544
root 8.23456 13.9347 -3.5265 -180.712 47.1198 -183.04
lfemur -33.7849 -5.73841 -16.2653
ltibia 89.2548 0 0
lfoot -39.0712 -10.4692 0
ltoes -5.97548 0 0
rfemur -48.9857 -8.09704 -3.3249
rtibia 64.5624 0 0
rfoot -10.7948 1.20241 0
rtoes -39.4402 0 0
lowerback 13.2425 1.10486 1.56722
upperback 7.06257 2.63847 7.13606
thorax -0.258724 1.61042 6.27346
lowerneck -2.16462 -15.9821 -6.05731
upperneck 9.08153 -21.7053 8.73472
head 4.70256 -10.4808 2.28274
lclavicle 3.12075e-14 8.78136e-15 0
lhumerus -45.4335 -12.2853 104.087
lradius 56.6045 0 0
lwrist 31.0144 0 0
lhand -24.9137 -2.73448 0
lfingers 7.12502 0 0
lthumb 1.5949 27.2392 0
rclavicle 3.12075e-14 8.78136e-15 0
rhumerus 4.80634 18.1886 -90.7445
rradius 135.642 0 0
rwrist -46.2571 0 0
rhand -30.5588 -24.1884 0
rfingers 7.12502 0 0
rthumb -3.85706 -774.131 0
545
root 8.27657 13.9233 -3.49747 -180.68 46.8305 -182.961
lfemur -33.7957 -5.77976 -15.8047
ltibia 89.2662 0 0
lfoot -39.2519 -11.4854 0
ltoes -5.20641 0 0
rfemur -49.0679 -8.18244 -3.13349
rtibia 65.0142 0 0
rfoot -10.8617 0.879001 0
rtoes -39.2993 0 0
lowerback 13.1654 0.930141 1.63319
upperback 7.04319 2.40219 7.03035
thorax -0.207459 1.49196 6.15629
lowerneck -2.03458 -15.8557 -5.95148
upperneck 8.73264 -21.5337 8.78054
head 4.55483 -10.4105 2.32497
lclavicle 4.88906e-14 -7.67781e-15 0
lhumerus -45.6511 -11.8362 103.681
lradius 56.1156 0 0
lwrist 31.322 0 0
lhand -24.8397 -2.67821 0
lfingers 7.12502 0 0
lthumb 1.6664 27.295 0
rclavicle 4.88906e-14 -7.67781e-15 0
rhumerus 5.13042 18.8296 -90.3511
rradius 135.263 0 0
rwrist -45.7007 0 0
rhand -30.1015 -23.7221 0
rfingers 7.12502 0 0
rthumb -3.41547 -773.673 0
546
root 8.31309 13.9197 -3.47152 -180.659 46.5852 -182.902
lfemur -33.7504 -5.83082 -15.3949
ltibia 89.1629 0 0
lfoot -39.4279 -12.4562 0
ltoes -4.40977 0 0
rfemur -49.1072 -8.19575 -2.97238
rtibia 65.3412 0 0
rfoot -10.8494 0.562221 0
rtoes -39.1827 0 0
lowerback 13.0791 0.760741 1.66704
upperback 7.01322 2.16653 6.91915
thorax -0.164207 1.37218 6.05115
lowerneck -1.92168 -15.7395 -5.85785
upperneck 8.43464 -21.3752 8.80591
head 4.42577 -10.3453 2.35788
lclavicle 6.90774e-14 -1.22864e-14 0
lhumerus -45.8461 -11.465 103.325
lradius 55.6478 0 0
lwrist 31.5208 0 0
lhand -24.7485 -2.64695 0
lfingers 7.12502 0 0
lthumb 1.75441 27.3255 0
rclavicle 6.90774e-14 -1.22864e-14 0
rhumerus 5.56085 19.3665 -89.8913
rradius 134.949 0 0
rwrist -45.2047 0 0
rhand -29.6632 -23.2678 0
rfingers 7.12502 0 0
rthumb -2.99223 -773.226 0
547
root 8.3426 13.9245 -3.44966 -180.653 46.3973 -182.868
lfemur -33.6469 -5.88619 -15.0556
ltibia 88.9407 0 0
lfoot -39.5906 -13.3481 0
ltoes -3.60323 0 0
rfemur -49.0997 -8.13052 -2.84987
rtibia 65.5231 0 0
rfoot -10.7566 0.259778 0
rtoes -39.0929 0 0
lowerback 12.986 0.604552 1.66225
upperback 6.9725 1.94136 6.80527
thorax -0.131767 1.25582 5.96331
lowerneck -1.83125 -15.6388 -5.78109
upperneck 8.20244 -21.237 8.80926
head 4.32172 -10.2881 2.37983
lclavicle 9.85972e-14 6.36111e-15 0
lhumerus -46.01 -11.1851 103.032
lradius 55.2192 0 0
lwrist 31.5909 0 0
lhand -24.6475 -2.6444 0
lfingers 7.12502 0 0
lthumb 1.85197 27.3273 0
rclavicle 9.85972e-14 6.36111e-15 0
rhumerus 6.08594 19.7702 -89.381
rradius 134.72 0 0
rwrist -44.7914 0 0
rhand -29.263 -22.8451 0
rfingers 7.12502 0 0
rthumb -2.6057 -772.809 0
548
root 8.35664 13.9599 -3.43376 -180.632 46.3921 -182.88
lfemur -33.4073 -5.76575 -14.8887
ltibia 88.3526 0 0
lfoot -39.6249 -13.8664 0
ltoes -3.09029 0 0
rfemur -48.953 -7.7608 -2.78647
rtibia 65.2051 0 0
rfoot -10.3903 -0.081867 0
rtoes -39.0218 0 0
lowerback 12.8386 0.467148 1.53982
upperback 6.87357 1.71549 6.66246
thorax -0.135001 1.13216 5.90973
lowerneck -1.79353 -15.565 -5.74314
upperneck 8.10276 -21.1357 8.76916
head 4.26934 -10.2448 2.38049
lclavicle 6.03842e-14 -1.70341e-14 0
lhumerus -46.0984 -10.9602 102.804
lradius 54.8507 0 0
lwrist 31.172 0 0
lhand -24.5972 -2.75464 0
lfingers 7.12502 0 0
lthumb 1.90053 27.2166 0
rclavicle 6.03842e-14 -1.70341e-14 0
rhumerus 6.92426 19.8118 -88.707
rradius 134.699 0 0
rwrist -44.5391 0 0
rhand -28.9204 -22.4862 0
rfingers 7.12502 0 0
rthumb -2.27478 -772.453 0
549
root 8.36691 14.0074 -3.4182 -180.582 46.4512 -182.881
lfemur -33.1235 -5.5436 -14.7531
ltibia 87.63 0 0
lfoot -39.6142 -14.2161 0
ltoes -2.81015 0 0
rfemur -48.7582 -7.28206 -2.71349
rtibia 64.6969 0 0
rfoot -9.90696 -0.43681 0
rtoes -38.9346 0 0
lowerback 12.665 0.321497 1.39326
upperback 6.75092 1.47153 6.50556
thorax -0.147482 0.997525 5.85659
lowerneck -1.76465 -15.4905 -5.70546
upperneck 8.01705 -21.0334 8.71618
head 4.22129 -10.2009 2.37636
lclavicle 2.32561e-14 -1.83972e-14 0
lhumerus -46.1688 -10.6912 102.558
lradius 54.4787 0 0
lwrist 30.6378 0 0
lhand -24.5766 -2.89829 0
lfingers 7.12502 0 0
lthumb 1.92048 27.0728 0
rclavicle 2.32561e-14 -1.83972e-14 0
rhumerus 7.88311 19.7731 -87.9597
rradius 134.71 0 0
rwrist -44.3087 0 0
rhand -28.5798 -22.1349 0
rfingers 7.12502 0 0
rthumb -1.9459 -772.105 0
